<svg width="15" height="21" viewBox="0 0 15 21" fill="none" xmlns="http://www.w3.org/2000/svg">
<path fill-rule="evenodd" clip-rule="evenodd" d="M14.3754 4.83848C12.9421 1.28052 8.51987 -0.350554 4.78701 1.20623C1.05415 2.75076 -0.47391 6.77835 1.47978 10.1884C2.32554 11.6594 3.34662 13.1289 4.28003 14.6727C5.38244 16.4524 6.49116 18.2443 7.76177 20.2455C7.92523 19.9367 8.01919 19.7881 8.10053 19.6273C10.0479 16.5389 12.09 13.364 14.0382 10.1884C15.0593 8.48302 15.1469 6.70403 14.3754 4.83848Z" fill="#FBFCFF"/>
<path d="M7.74867 10.4482C9.51558 10.4482 10.9484 9.04695 10.9484 7.31961C10.9484 5.59227 9.51558 4.19238 7.74867 4.19238C5.98175 4.19238 4.54956 5.59227 4.54956 7.31961C4.54956 9.04695 5.98175 10.4482 7.74867 10.4482Z" fill="#14262D"/>
</svg>
