<svg width="155" height="126" viewBox="0 0 155 126" fill="none" xmlns="http://www.w3.org/2000/svg">
<path fill-rule="evenodd" clip-rule="evenodd" d="M135.35 50.401V111.317H17.8987V50.401H17.9217L76.6367 18.8198L135.35 50.401Z" fill="#F68B29"/>
<path fill-rule="evenodd" clip-rule="evenodd" d="M77.173 10.9526L5.05202 49.7447L0.315063 42.0996L77.1697 0.760606L77.171 0.758301L77.1722 0.759073L77.1739 0.758301L77.1751 0.760606L154.03 42.0996L149.292 49.7447L77.173 10.9526Z" fill="#F68B29"/>
<path d="M48.2122 103.659L89.6601 42.9609H102.147L60.6986 103.659H48.2122ZM53.7618 75.8244C50.8136 75.8244 48.1544 75.1596 45.7843 73.8301C43.4142 72.5005 41.5644 70.5929 40.2348 68.1071C38.9053 65.5636 38.2405 62.5287 38.2405 59.0025C38.2405 55.4762 38.9053 52.4702 40.2348 49.9845C41.5644 47.4988 43.4142 45.5912 45.7843 44.2616C48.1544 42.8742 50.8136 42.1805 53.7618 42.1805C56.7677 42.1805 59.4269 42.8742 61.7392 44.2616C64.1093 45.5912 65.9591 47.4988 67.2887 49.9845C68.6761 52.4702 69.3697 55.4762 69.3697 59.0025C69.3697 62.4709 68.6761 65.4769 67.2887 68.0204C65.9591 70.564 64.1093 72.5005 61.7392 73.8301C59.4269 75.1596 56.7677 75.8244 53.7618 75.8244ZM53.8485 67.5869C55.2936 67.5869 56.4787 66.9221 57.4036 65.5925C58.3863 64.263 58.8777 62.0663 58.8777 59.0025C58.8777 55.9387 58.3863 53.742 57.4036 52.4124C56.4787 51.0829 55.2936 50.4181 53.8485 50.4181C52.4033 50.4181 51.1604 51.0829 50.1199 52.4124C49.1372 53.742 48.6458 55.9387 48.6458 59.0025C48.6458 62.0663 49.1372 64.263 50.1199 65.5925C51.1604 66.9221 52.4033 67.5869 53.8485 67.5869ZM96.597 104.439C93.591 104.439 90.903 103.774 88.5329 102.445C86.2206 101.115 84.3997 99.2075 83.0701 96.7218C81.7405 94.1783 81.0757 91.1434 81.0757 87.6171C81.0757 84.0909 81.7405 81.0849 83.0701 78.5992C84.3997 76.1135 86.2206 74.2058 88.5329 72.8763C90.903 71.4889 93.591 70.7952 96.597 70.7952C99.603 70.7952 102.262 71.4889 104.574 72.8763C106.945 74.2058 108.794 76.1135 110.124 78.5992C111.511 81.0849 112.205 84.0909 112.205 87.6171C112.205 91.1434 111.511 94.1783 110.124 96.7218C108.794 99.2075 106.945 101.115 104.574 102.445C102.262 103.774 99.603 104.439 96.597 104.439ZM96.597 96.2015C98.0422 96.2015 99.2562 95.5368 100.239 94.2072C101.222 92.8776 101.713 90.6809 101.713 87.6171C101.713 84.5533 101.222 82.3567 100.239 81.0271C99.2562 79.6975 98.0422 79.0327 96.597 79.0327C95.2097 79.0327 93.9957 79.6975 92.9552 81.0271C91.9724 82.3567 91.4811 84.5533 91.4811 87.6171C91.4811 90.6809 91.9724 92.8776 92.9552 94.2072C93.9957 95.5368 95.2097 96.2015 96.597 96.2015Z" fill="#14262D"/>
</svg>
