<svg width="159" height="123" viewBox="0 0 159 123" fill="none" xmlns="http://www.w3.org/2000/svg">
<path d="M79.5016 45.7901C81.4851 38.262 86.3202 33.7666 92.4388 33.7666C96.3098 33.7666 100.175 35.6382 103.619 39.1813L107.775 43.4498C107.94 41.4947 108.759 39.6798 110.127 38.2769L120.276 27.8414C120.32 27.4115 120.419 26.9936 120.512 26.5728H74.1351V53.6883H77.4195L79.5016 45.7901Z" fill="#F68B29"/>
<path d="M67.1655 26.5728H16.4736V53.6883H67.1655V26.5728Z" fill="#F68B29"/>
<path d="M45.6732 60.8877V88.0033H68.3765L75.5232 60.8877H45.6732Z" fill="#F68B29"/>
<path d="M66.6341 95.167H16.4736V122.28H67.1655V103.14C66.3757 100.776 66.1898 98.0714 66.6341 95.167Z" fill="#F68B29"/>
<path d="M38.7065 60.8877H0.315918V88.0033H38.7065V60.8877Z" fill="#F68B29"/>
<path d="M127.194 60.8877L125.965 62.1503L136.812 73.2992C141.159 77.7647 142.933 83.093 141.687 87.9107L141.653 88.0033H154.029V60.8877H127.194Z" fill="#F68B29"/>
<path d="M79.3767 111.582C77.4804 111.582 75.7235 111.236 74.1351 110.606V122.28H124.827V99.6392L84.7085 110.809C82.8645 111.322 81.0727 111.582 79.3767 111.582Z" fill="#F68B29"/>
<path d="M121.72 64.5383L110.502 76.0633C109.822 76.7648 108.931 77.114 108.042 77.114C107.147 77.114 106.259 76.7648 105.576 76.0633C105.15 75.6245 104.906 75.0902 104.746 74.532C105.062 74.6276 105.388 74.726 105.716 74.726C106.61 74.726 107.499 74.3768 108.181 73.6753L126.372 54.9774C127.734 53.5774 127.734 51.3089 126.372 49.9119L120.802 44.1867L129.857 34.8795C130.121 34.9183 130.391 34.9601 130.661 34.9601C132.148 34.9601 133.632 34.3751 134.767 33.2109L148.404 19.1905C150.672 16.8592 150.672 13.0802 148.404 10.7489C146.139 8.41767 142.457 8.41767 140.192 10.7489L126.555 24.7694C125.213 26.1455 124.685 28.023 124.929 29.814L113.408 41.6554C112.049 43.0524 112.049 45.321 113.408 46.721L118.978 52.4462L114.468 57.0848L100.335 42.5599C93.7427 35.781 86.4218 37.7899 83.9883 47.0374L71.6115 93.9881C69.175 103.236 74.4952 108.704 83.4946 106.2L129.171 93.4807C138.171 90.9763 140.122 83.4511 133.527 76.6752L121.72 64.5383Z" stroke="#14262D" stroke-width="16.1342" stroke-miterlimit="2" stroke-linejoin="round"/>
<path d="M121.72 64.5383L110.502 76.0633C109.822 76.7648 108.931 77.114 108.042 77.114C107.147 77.114 106.259 76.7648 105.576 76.0633C105.15 75.6245 104.906 75.0902 104.746 74.532C105.062 74.6276 105.388 74.726 105.716 74.726C106.61 74.726 107.499 74.3768 108.181 73.6753L126.372 54.9774C127.734 53.5774 127.734 51.3089 126.372 49.9119L120.802 44.1867L129.857 34.8795C130.121 34.9183 130.391 34.9601 130.661 34.9601C132.148 34.9601 133.632 34.3751 134.767 33.2109L148.404 19.1905C150.672 16.8592 150.672 13.0802 148.404 10.7489C146.139 8.41767 142.457 8.41767 140.192 10.7489L126.555 24.7694C125.213 26.1455 124.685 28.023 124.929 29.814L113.408 41.6554C112.049 43.0524 112.049 45.321 113.408 46.721L118.978 52.4462L114.468 57.0848L100.335 42.5599C93.7427 35.781 86.4218 37.7899 83.9883 47.0374L71.6115 93.9881C69.175 103.236 74.4952 108.704 83.4946 106.2L129.171 93.4807C138.171 90.9763 140.122 83.4511 133.527 76.6752L121.72 64.5383Z" fill="#F68B29"/>
</svg>
