<svg width="134" height="106" viewBox="0 0 134 106" fill="none" xmlns="http://www.w3.org/2000/svg">
<path d="M131.422 8.9473C131.422 6.74426 130.548 4.63206 128.99 3.07403C127.431 1.516 125.319 0.641602 123.116 0.641602C95.6981 0.641602 9.82404 0.641602 9.82404 0.641602C4.6795 0.641602 0.470337 4.72973 0.470337 9.72632V96.0312C0.470337 101.028 4.6795 105.116 9.82404 105.116H126.745C129.329 105.116 131.422 103.083 131.422 100.574V8.9473Z" fill="#F68B29"/>
<path d="M9.8241 91.4888V0.641602H126.745C129.318 0.641602 131.422 2.68566 131.422 5.18396V86.9465C131.422 89.4448 129.318 91.4888 126.745 91.4888H9.8241Z" fill="#F68B29"/>
<path d="M127.912 90.3918H10.9904C9.69725 90.3918 8.65198 91.4071 8.65198 92.663C8.65198 93.919 9.69725 94.9342 10.9904 94.9342H127.912C130.496 94.9342 132.589 92.9015 132.589 90.3918V85.8495C132.589 88.3591 130.496 90.3918 127.912 90.3918Z" fill="#14262D" stroke="#14262D" stroke-width="2.21238" stroke-miterlimit="2" stroke-linejoin="round"/>
<path d="M86.0738 61.0451H86.1123H129.685V32.0275H86.1123C79.5508 32.0275 74.229 38.5228 74.229 46.5363C74.229 54.5339 79.5295 61.0191 86.0738 61.0451Z" fill="#14262D"/>
<path d="M101.023 46.0653C101.023 51.0823 96.8346 55.15 91.669 55.15C86.5034 55.15 82.3153 51.0823 82.3153 46.0653C82.3153 41.0483 86.5034 36.9806 91.669 36.9806C96.8346 36.9806 101.023 41.0483 101.023 46.0653Z" fill="#F68B29"/>
</svg>
