<svg width="133" height="121" viewBox="0 0 133 121" fill="none" xmlns="http://www.w3.org/2000/svg">
<path d="M7.25251 120.881C3.63521 120.853 0.709656 117.197 0.709656 112.697C0.709656 108.18 3.65786 104.514 7.29518 104.514H125.835L125.877 104.514C129.495 104.543 132.42 108.198 132.42 112.697C132.42 117.215 129.472 120.881 125.835 120.881H7.29518H7.25251Z" fill="#F68B29"/>
<path d="M124.835 60.8692C124.835 94.0138 97.9647 120.884 64.8202 120.884C31.6756 120.884 4.80536 94.0138 4.80536 60.8692C4.80536 27.7247 31.6756 0.854492 64.8202 0.854492C97.9647 0.854492 124.835 27.7247 124.835 60.8692Z" fill="#F68B29"/>
<path d="M109.563 60.8653C109.563 85.5765 89.5301 105.61 64.819 105.61C40.1078 105.61 20.0745 85.5765 20.0745 60.8653C20.0745 36.154 40.1078 16.1206 64.819 16.1206C89.5301 16.1206 109.563 36.154 109.563 60.8653Z" fill="#F68B29" stroke="#14262D" stroke-width="6.71168" stroke-miterlimit="2" stroke-linejoin="round"/>
<path d="M30.3738 112.086C28.273 112.073 26.5739 110.381 26.5739 108.298C26.5739 106.208 28.2861 104.511 30.3985 104.511H99.242L99.2668 104.511C101.368 104.524 103.067 106.216 103.067 108.298C103.067 110.389 101.354 112.086 99.242 112.086H30.3985H30.3738Z" fill="#14262D"/>
<path d="M120.295 120.883H101.28C102.84 119.355 104.331 117.724 105.748 116H120.295V120.883ZM33.2152 120.883H14.2008V116H28.7475C30.164 117.724 31.6552 119.355 33.2152 120.883Z" fill="#F68B29"/>
<path fill-rule="evenodd" clip-rule="evenodd" d="M73.9567 66.3195H90.9694L64.7969 92.4922L38.6244 66.3195H55.6365V35.0689H73.9567V66.3195Z" fill="#14262D"/>
</svg>
