<svg width="119" height="119" viewBox="0 0 119 119" fill="none" xmlns="http://www.w3.org/2000/svg">
<path d="M118.334 59.4719C118.334 91.9303 92.0211 118.244 59.5628 118.244C27.1044 118.244 0.79126 91.9303 0.79126 59.4719C0.79126 27.0135 27.1044 0.700195 59.5628 0.700195C92.0211 0.700195 118.334 27.0135 118.334 59.4719Z" fill="#F68B29"/>
<path d="M101.878 59.4719C101.878 82.8395 82.9327 101.787 59.5628 101.787C36.1929 101.787 17.2473 82.8395 17.2473 59.4719C17.2473 36.1019 36.1929 17.1562 59.5628 17.1562C82.9327 17.1562 101.878 36.1019 101.878 59.4719Z" fill="#F68B29"/>
<path d="M87.7731 59.4716C87.7731 75.0508 75.1419 87.6821 59.5628 87.6821C43.9836 87.6821 31.3524 75.0508 31.3524 59.4716C31.3524 43.8924 43.9836 31.2612 59.5628 31.2612C75.1419 31.2612 87.7731 43.8924 87.7731 59.4716Z" fill="#F68B29"/>
<path d="M80.7205 59.4718C80.7205 71.1556 71.2466 80.6296 59.5628 80.6296C47.8767 80.6296 38.4051 71.1556 38.4051 59.4718C38.4051 47.7856 47.8767 38.314 59.5628 38.314C71.2466 38.314 80.7205 47.7856 80.7205 59.4718Z" fill="#F68B29"/>
<path d="M66.6154 59.4719C66.6154 63.365 63.4582 66.5245 59.5629 66.5245C55.6675 66.5245 52.5103 63.365 52.5103 59.4719C52.5103 55.5789 55.6675 52.4193 59.5629 52.4193C63.4582 52.4193 66.6154 55.5789 66.6154 59.4719Z" fill="#F68B29"/>
<path fill-rule="evenodd" clip-rule="evenodd" d="M50.3614 87.0704L22.7559 59.4649L31.9577 50.263L50.3614 68.6667L87.1687 31.8594L96.3706 41.0612L50.3614 87.0704Z" fill="#14262D"/>
</svg>
