<svg width="134" height="110" viewBox="0 0 134 110" fill="none" xmlns="http://www.w3.org/2000/svg">
<path d="M127.545 101.694C127.545 106.129 123.917 109.757 119.482 109.757H14.6686C10.2341 109.757 6.60596 106.129 6.60596 101.694V33.1622C6.60596 28.7278 10.2341 25.0996 14.6686 25.0996H119.482C123.917 25.0996 127.545 28.7278 127.545 33.1622V101.694Z" fill="#F68B29"/>
<path d="M127.545 93.6316C127.545 98.0661 123.917 101.694 119.482 101.694H14.6686C10.2341 101.694 6.60596 98.0661 6.60596 93.6316V37.1934C6.60596 32.759 10.2341 29.1308 14.6686 29.1308H119.482C123.917 29.1308 127.545 32.759 127.545 37.1934V93.6316Z" fill="#F68B29"/>
<path d="M127.545 53.3184C127.545 59.3654 121.498 65.4123 115.451 65.4123H18.6999C12.6529 65.4123 6.60596 59.3654 6.60596 53.3184V29.1306C6.60596 24.6962 10.2341 21.068 14.6686 21.068H119.482C123.917 21.068 127.545 24.6962 127.545 29.1306V53.3184Z" fill="#F68B29"/>
<path d="M127.545 49.2875C127.545 55.3344 121.498 61.3814 115.451 61.3814H18.6999C12.653 61.3814 6.60602 55.3344 6.60602 49.2875V25.0997C6.60602 20.6652 10.2342 17.037 14.6686 17.037H119.482C123.917 17.037 127.545 20.6652 127.545 25.0997V49.2875Z" stroke="#14262D" stroke-width="12.6986" stroke-miterlimit="2" stroke-linejoin="round"/>
<path d="M127.545 49.2875C127.545 55.3344 121.498 61.3814 115.451 61.3814H18.6999C12.653 61.3814 6.60602 55.3344 6.60602 49.2875V25.0997C6.60602 20.6652 10.2342 17.037 14.6686 17.037H119.482C123.917 17.037 127.545 20.6652 127.545 25.0997V49.2875Z" fill="#F68B29"/>
<path d="M99.3255 53.3188H87.2316V73.3414H99.3255V53.3188Z" fill="#14262D"/>
<path d="M99.3258 65.4124H87.2319V69.4437H99.3258V65.4124Z" fill="#F68B29"/>
<path d="M46.9186 53.3188H34.8247V73.3414H46.9186V53.3188Z" fill="#14262D"/>
<path d="M46.919 65.4124H34.8251V69.4437H46.919V65.4124Z" fill="#F68B29"/>
<path d="M89.2477 0.911621H44.9034C42.6862 0.911621 40.8721 2.72571 40.8721 4.94292V10.9899C40.8721 12.0985 42.6862 13.0055 44.9034 13.0055C47.1206 13.0055 48.9347 12.0985 48.9347 10.9899C48.9347 9.88127 50.7488 8.97422 52.966 8.97422H81.1851C83.4023 8.97422 85.2164 9.88127 85.2164 10.9899C85.2164 12.0985 87.0305 13.0055 89.2477 13.0055C91.4649 13.0055 93.279 12.0985 93.279 10.9899V4.94292C93.279 2.72571 91.4649 0.911621 89.2477 0.911621Z" fill="#F68B29"/>
</svg>
