<svg width="26" height="27" viewBox="0 0 26 27" fill="none" xmlns="http://www.w3.org/2000/svg">
<path d="M25.546 20.2324V24.2C25.546 24.204 25.546 24.2066 25.546 24.2106C25.546 25.6614 24.4235 26.8556 23.06 26.8556C22.9854 26.8556 22.9108 26.8517 22.8362 26.8451C19.0115 26.4033 15.3372 25.012 12.1091 22.7849C9.10606 20.7548 6.55915 18.0449 4.65115 14.8497C2.55048 11.3992 1.24284 7.47122 0.835139 3.38326C0.828924 3.30391 0.825195 3.22456 0.825195 3.14521C0.825195 1.69571 1.94638 0.501455 3.30871 0.500132H7.03771C8.27947 0.486907 9.34969 1.46691 9.52371 2.7749C9.68157 4.04453 9.97243 5.29168 10.3938 6.49123C10.7344 7.45668 10.5156 8.54909 9.83446 9.28178L8.25585 10.9614C10.0246 14.2717 12.6026 17.0147 15.7138 18.8966L17.2925 17.217C17.9811 16.4922 19.0078 16.2595 19.9152 16.6219C21.0426 17.0702 22.2147 17.3797 23.408 17.5476C24.6523 17.7341 25.5771 18.8966 25.546 20.2324Z" fill="white"/>
<path d="M15.6641 0.5C20.8648 1.08324 25.0214 5.47142 25.6081 11.0009L15.6641 0.5Z" fill="white"/>
<path d="M15.6641 5.79102C18.16 6.31474 20.1128 8.4189 20.5739 11.0812L15.6641 5.79102Z" fill="white"/>
</svg>
