<svg width="20" height="21" viewBox="0 0 20 21" fill="none" xmlns="http://www.w3.org/2000/svg">
<path d="M1.12803 8.72422C0.754954 8.72422 0.452743 8.44605 0.452743 8.10308C0.452743 7.75991 0.754954 7.48193 1.12803 7.48193H11.8491L11.5878 8.72422H1.12803Z" fill="white"/>
<path d="M14.1588 1.47423C14.2478 1.05142 14.6502 0.746094 15.1183 0.746094H18.3935C18.9331 0.746094 19.3705 1.1485 19.3705 1.64482V8.72032H12.6355L14.1588 1.47423Z" fill="white"/>
<path d="M19.3699 12.7161C19.3699 14.1575 18.0995 15.3261 16.5324 15.3261C15.5084 15.3261 14.8187 16.29 15.2236 17.1553L16.5712 20.0343H5.99205V15.2694C2.86288 14.8744 0.452078 12.407 0.452078 9.42017H19.3699L19.3699 12.7161Z" fill="white"/>
</svg>
