<svg width="20" height="14" viewBox="0 0 20 14" fill="none" xmlns="http://www.w3.org/2000/svg">
<path d="M19.0462 12.4398V9.20085C19.0462 7.43489 17.6055 6.00293 15.8283 6.00293H3.92221C2.14502 6.00293 0.704315 7.43489 0.704315 9.20085V12.4398H19.0462Z" fill="white"/>
<path d="M3.5994 12.7012H7.78467V13.8076H3.5994V12.7012Z" fill="white"/>
<path d="M11.9658 12.7012H16.1511V13.8076H11.9658V12.7012Z" fill="white"/>
<path d="M15.8285 0.536133H3.92239C2.1452 0.536133 0.704498 1.96803 0.704498 3.73405V7.46485H0.715389C0.816916 6.35869 1.99683 5.46457 3.50779 5.32469V4.47781C3.50779 3.9572 3.93246 3.53516 4.45637 3.53516H8.52343C9.04734 3.53516 9.47201 3.9572 9.47201 4.47781V5.30554H10.2788V4.47781C10.2788 3.9572 10.7036 3.53516 11.2274 3.53516H15.2945C15.8184 3.53516 16.243 3.9572 16.243 4.47781V5.32469C17.7541 5.46457 18.9341 6.35869 19.0355 7.46485H19.0464V3.73405C19.0464 1.96803 17.6057 0.536133 15.8285 0.536133Z" fill="white"/>
</svg>
