<svg xmlns="http://www.w3.org/2000/svg" viewBox="0 0 19.09 15.78"><defs><style>.cls-1{fill:#fff;}</style></defs><g id="Слой_2" data-name="Слой 2"><g id="Слой_1-2" data-name="Слой 1"><path class="cls-1" d="M1.17,6.87S9.61,3.41,12.54,2.19c1.12-.49,4.93-2,4.93-2s1.75-.68,1.61,1c0,.68-.44,3.07-.83,5.66C17.66,10.43,17,14.44,17,14.44s-.1,1.12-.93,1.31a3.94,3.94,0,0,1-2.44-.88c-.19-.14-3.66-2.34-4.93-3.41a.92.92,0,0,1,0-1.56C10.54,8.29,12.64,6.29,13.9,5c.59-.59,1.18-1.95-1.26-.29C9.17,7.12,5.76,9.36,5.76,9.36a2.87,2.87,0,0,1-2.25.05C2.05,9,.34,8.39.34,8.39s-1.17-.74.83-1.52Z"/></g></g></svg>