<svg xmlns="http://www.w3.org/2000/svg" viewBox="0 0 15.83 15.87"><defs><style>.cls-1,.cls-2{fill:#fff;}.cls-2{fill-rule:evenodd;}</style></defs><g id="Слой_2" data-name="Слой 2"><g id="Слой_1-2" data-name="Слой 1"><path class="cls-1" d="M4.48,13.14l.27.16A6.36,6.36,0,1,0,1.64,7.84a6.3,6.3,0,0,0,.93,3.29l.16.27L2.1,13.77l2.38-.63ZM0,15.87l1.14-4.25a7.73,7.73,0,0,1-1-3.78,7.87,7.87,0,1,1,4.12,6.89L0,15.87Z"/><path class="cls-2" d="M10.91,8.93a1.3,1.3,0,0,0-1.12-.25c-.3.11-.48.57-.67.8a.28.28,0,0,1-.36.08A5,5,0,0,1,6.22,7.39a.32.32,0,0,1,0-.43,1.69,1.69,0,0,0,.46-.74,1.65,1.65,0,0,0-.21-.89c-.15-.33-.32-.8-.65-1a.87.87,0,0,0-1,.14A2,2,0,0,0,4.2,6.05a2.73,2.73,0,0,0,.06.5,4.48,4.48,0,0,0,.48,1.1,9,9,0,0,0,.5.76,7.74,7.74,0,0,0,2.15,2,6.94,6.94,0,0,0,1.35.64,3,3,0,0,0,1.57.24,1.91,1.91,0,0,0,1.42-1,.91.91,0,0,0,.06-.54c-.08-.37-.58-.59-.88-.77Z"/></g></g></svg>