<svg xmlns="http://www.w3.org/2000/svg" viewBox="0 0 98.31 15.27"><defs><style>.cls-1{fill:#f9fdff;fill-rule:evenodd;}</style></defs><g id="Слой_2" data-name="Слой 2"><g id="Слой_1-2" data-name="Слой 1"><path class="cls-1" d="M14.81,7.64c0,4.25-3.8,7.63-8.52,7.63A8.8,8.8,0,0,1,.15,12.94L0,12.79l2.46-2.11.13.11a5.65,5.65,0,0,0,3.74,1.27A4.9,4.9,0,0,0,11,9H4.52V6.19H11a4.89,4.89,0,0,0-4.65-3A5.15,5.15,0,0,0,2.79,4.48l-.12.11L.21,2.47l.15-.14A8.26,8.26,0,0,1,6.29,0c4.74,0,8.5,3.38,8.52,7.64Zm5.36,3.6V14.9H16.51V.37h3.66V6.12L25.52.37h4.95L23.55,7.7l6.89,7.2h-4.8l-4.45-4.73-1,1.07Zm17.8,4c-4.73,0-8.53-3.42-8.53-7.63S33.16,0,38,0s8.52,3.39,8.52,7.64S42.75,15.27,38,15.27ZM38,3.2A4.71,4.71,0,0,0,33,7.64,4.71,4.71,0,0,0,38,12.06a4.67,4.67,0,0,0,4.94-4.42A4.68,4.68,0,0,0,38,3.2Zm23,8.49h1.39V14.9H46.11l.53-3.18h1.2l4-11.35H61V11.69ZM52.17,9.27h0l0,0Zm1-2.93h0Zm.06,5.36,4.2,0V6.45h0v-3h-3.1L53.4,6.21l-.17.12v0l.18-.13L52.34,9.38h0l-.78,2.32h1.68Zm18.45,3.57c-4.72,0-8.52-3.42-8.52-7.63S66.87,0,71.68,0s8.53,3.39,8.53,7.64-3.74,7.63-8.53,7.63Zm0-12.07a4.7,4.7,0,0,0-4.94,4.44,5,5,0,0,0,9.89,0A4.68,4.68,0,0,0,71.68,3.2ZM81.91,14.9V.37h3.47l4.74,7.22L94.86.37h3.45V14.9H94.73v-8l-2.6,4-2,3-2-3-2.6-4v8Z"/></g></g></svg>